# xmcd CD database file
#
# Track frame offsets:
#	150
#	18621
#	30623
#	46377
#	63845
#	76813
#	90967
#	100953
#	120720
#	136237
#
# Disc length: 2053 seconds
#
# Revision: 0
# Processed by: cddbd v1.5.1PL2 Copyright (c) Steve Scherf et al.
# Submitted via: CDex 1.51
#
DISCID=7408030a
DTITLE=Ashley McBryde - Ashley McBryde
DYEAR=2006
DGENRE=Country
TTITLE0=The Distance
TTITLE1=New York and Mexico
TTITLE2=Second Night Alone
TTITLE3=Hope I See Him Again Tonight
TTITLE4=Come Tomorrow
TTITLE5=Now That I'm Gone
TTITLE6=Trouble
TTITLE7=She Doesn't Need You Now
TTITLE8=Anywhere But Here
TTITLE9=Just For A Moment
EXTD=YEAR: 2006
EXTT0=
EXTT1=
EXTT2=
EXTT3=
EXTT4=
EXTT5=
EXTT6=
EXTT7=
EXTT8=
EXTT9=
PLAYORDER=
